<svg width="55" height="55" viewBox="0 0 55 55" fill="none" xmlns="http://www.w3.org/2000/svg">
<path d="M27.5001 0.419373C12.544 0.419373 0.419434 12.5439 0.419434 27.5C0.419434 42.4561 12.544 54.5806 27.5001 54.5806C42.4562 54.5806 54.5807 42.4561 54.5807 27.5C54.5807 12.5439 42.4562 0.419373 27.5001 0.419373ZM14.1466 44.5117C15.3126 42.0681 22.4057 39.6875 27.5001 39.6875C32.5944 39.6875 39.6876 42.0681 40.8535 44.5117C37.0586 47.5323 32.3503 49.1746 27.5001 49.1694C22.4626 49.1694 17.8272 47.4327 14.1466 44.5117ZM44.7251 40.5833C40.8535 35.8708 31.4508 34.2681 27.5001 34.2681C23.5493 34.2681 14.1466 35.8728 10.2751 40.5853C7.39362 36.8317 5.83138 32.2321 5.83068 27.5C5.83068 15.5583 15.5604 5.83062 27.5001 5.83062C39.4418 5.83062 49.1694 15.5603 49.1694 27.5C49.1694 32.4278 47.4876 36.9819 44.7251 40.5833ZM27.5001 11.25C26.2539 11.2465 25.0194 11.4894 23.8674 11.9647C22.7154 12.4399 21.6688 13.1382 20.7876 14.0194C19.9064 14.9006 19.2081 15.9472 18.7328 17.0992C18.2576 18.2512 18.0147 19.4857 18.0182 20.7319C18.0158 21.9773 18.2594 23.211 18.7352 24.3621C19.2109 25.5131 19.9094 26.5588 20.7905 27.4391C21.6715 28.3194 22.7178 29.017 23.8693 29.4917C25.0207 29.9665 26.2546 30.2091 27.5001 30.2056C28.7455 30.2091 29.9794 29.9665 31.1308 29.4917C32.2823 29.017 33.3286 28.3194 34.2096 27.4391C35.0907 26.5588 35.7892 25.5131 36.2649 24.3621C36.7407 23.211 36.9843 21.9773 36.9819 20.7319C36.9854 19.4857 36.7425 18.2512 36.2673 17.0992C35.792 15.9472 35.0937 14.9006 34.2125 14.0194C33.3314 13.1382 32.2847 12.4399 31.1327 11.9647C29.9808 11.4894 28.7462 11.2465 27.5001 11.25M27.5001 24.7944C26.4226 24.7944 25.3893 24.3664 24.6274 23.6045C23.8656 22.8426 23.4376 21.8093 23.4376 20.7319C23.4376 19.6544 23.8656 18.6211 24.6274 17.8593C25.3893 17.0974 26.4226 16.6694 27.5001 16.6694C28.5775 16.6694 29.6108 17.0974 30.3727 17.8593C31.1345 18.6211 31.5626 19.6544 31.5626 20.7319C31.5626 21.8093 31.1345 22.8426 30.3727 23.6045C29.6108 24.3664 28.5775 24.7944 27.5001 24.7944V24.7944Z" fill="#7BD8F8"/>
</svg>
