<svg width="22" height="22" viewBox="0 0 22 22" fill="none" xmlns="http://www.w3.org/2000/svg">
<g clip-path="url(#clip0_475_11454)">
<path d="M12.6926 2.53846C11.7677 2.53846 11.0003 3.30592 11.0003 4.23077V5.07692H6.76949C6.54508 5.07692 6.32986 5.16607 6.17117 5.32475C6.01249 5.48344 5.92334 5.69866 5.92334 5.92308V14.3846C5.92334 14.609 6.01249 14.8243 6.17117 14.9829C6.32986 15.1416 6.54508 15.2308 6.76949 15.2308H21.1541C21.3785 15.2308 21.5937 15.1416 21.7524 14.9829C21.9111 14.8243 22.0003 14.609 22.0003 14.3846V5.92308C22.0003 5.69866 21.9111 5.48344 21.7524 5.32475C21.5937 5.16607 21.3785 5.07692 21.1541 5.07692H16.9233V4.23077C16.9233 3.30592 16.1559 2.53846 15.231 2.53846H12.6926ZM0.68734 3.38461C0.462926 3.40571 0.256084 3.51509 0.112315 3.68869C-0.031453 3.86229 -0.10037 4.08589 -0.0792753 4.31031C-0.0581803 4.53472 0.0511987 4.74156 0.2248 4.88533C0.398401 5.0291 0.622003 5.09802 0.846417 5.07692H1.69257C2.11988 5.07692 2.25103 5.16831 2.35342 5.28846C2.45665 5.40861 2.53872 5.63792 2.53872 5.92308V15.2308C2.53872 16.1818 2.74857 17.0771 3.35865 17.7168C3.96788 18.3548 4.88172 18.6154 5.92334 18.6154H21.1541C21.3785 18.6154 21.5937 18.5262 21.7524 18.3676C21.9111 18.2089 22.0003 17.9936 22.0003 17.7692C22.0003 17.5448 21.9111 17.3296 21.7524 17.1709C21.5937 17.0122 21.3785 16.9231 21.1541 16.9231H5.92334C5.15757 16.9231 4.80811 16.7437 4.6008 16.5262C4.39519 16.3096 4.23103 15.9331 4.23103 15.2308V5.92308C4.23103 5.33923 4.08465 4.71308 3.64888 4.20454C3.21396 3.696 2.49642 3.38461 1.69257 3.38461H0.846417C0.819919 3.38337 0.793377 3.38337 0.766879 3.38461C0.74038 3.38337 0.713838 3.38337 0.68734 3.38461ZM19.4618 18.6154C19.013 18.6154 18.5825 18.7937 18.2652 19.111C17.9478 19.4284 17.7695 19.8589 17.7695 20.3077C17.7695 20.7565 17.9478 21.187 18.2652 21.5043C18.5825 21.8217 19.013 22 19.4618 22C19.9106 22 20.3411 21.8217 20.6584 21.5043C20.9758 21.187 21.1541 20.7565 21.1541 20.3077C21.1541 19.8589 20.9758 19.4284 20.6584 19.111C20.3411 18.7937 19.9106 18.6154 19.4618 18.6154ZM5.92334 18.6154C5.47451 18.6154 5.04407 18.7937 4.7267 19.111C4.40933 19.4284 4.23103 19.8589 4.23103 20.3077C4.23103 20.7565 4.40933 21.187 4.7267 21.5043C5.04407 21.8217 5.47451 22 5.92334 22C6.37217 22 6.80261 21.8217 7.11998 21.5043C7.43735 21.187 7.61565 20.7565 7.61565 20.3077C7.61565 19.8589 7.43735 19.4284 7.11998 19.111C6.80261 18.7937 6.37217 18.6154 5.92334 18.6154ZM12.6926 4.23077H15.231V5.07692H12.6926V4.23077Z" fill="black"/>
</g>
<defs>
<clipPath id="clip0_475_11454">
<rect width="22" height="22" fill="white"/>
</clipPath>
</defs>
</svg>
