<svg width="36" height="36" viewBox="0 0 36 36" fill="none" xmlns="http://www.w3.org/2000/svg">
<path d="M10.2504 24.426C11.3214 23.607 12.5184 22.961 13.8414 22.4881C15.1644 22.016 16.5504 21.78 17.9994 21.78C19.4484 21.78 20.8344 22.016 22.1574 22.4881C23.4804 22.961 24.6774 23.607 25.7484 24.426C26.4834 23.565 27.0559 22.5885 27.4658 21.4965C27.8749 20.4045 28.0794 19.239 28.0794 18C28.0794 15.207 27.0979 12.8285 25.1348 10.8646C23.1709 8.90153 20.7924 7.91999 17.9994 7.91999C15.2064 7.91999 12.8284 8.90153 10.8653 10.8646C8.90137 12.8285 7.91941 15.207 7.91941 18C7.91941 19.239 8.12437 20.4045 8.53429 21.4965C8.94337 22.5885 9.51541 23.565 10.2504 24.426ZM17.9994 19.26C16.7604 19.26 15.7155 18.835 14.8645 17.9849C14.0145 17.134 13.5894 16.089 13.5894 14.85C13.5894 13.611 14.0145 12.566 14.8645 11.7151C15.7155 10.865 16.7604 10.44 17.9994 10.44C19.2384 10.44 20.2834 10.865 21.1343 11.7151C21.9844 12.566 22.4094 13.611 22.4094 14.85C22.4094 16.089 21.9844 17.134 21.1343 17.9849C20.2834 18.835 19.2384 19.26 17.9994 19.26ZM17.9994 30.6C16.2564 30.6 14.6184 30.269 13.0854 29.6071C11.5524 28.946 10.2189 28.0485 9.08491 26.9145C7.95091 25.7805 7.05337 24.447 6.39229 22.914C5.73037 21.381 5.39941 19.743 5.39941 18C5.39941 16.257 5.73037 14.619 6.39229 13.086C7.05337 11.553 7.95091 10.2195 9.08491 9.08549C10.2189 7.95149 11.5524 7.05353 13.0854 6.39161C14.6184 5.73053 16.2564 5.39999 17.9994 5.39999C19.7424 5.39999 21.3804 5.73053 22.9134 6.39161C24.4464 7.05353 25.7799 7.95149 26.9139 9.08549C28.0479 10.2195 28.9455 11.553 29.6065 13.086C30.2685 14.619 30.5994 16.257 30.5994 18C30.5994 19.743 30.2685 21.381 29.6065 22.914C28.9455 24.447 28.0479 25.7805 26.9139 26.9145C25.7799 28.0485 24.4464 28.946 22.9134 29.6071C21.3804 30.269 19.7424 30.6 17.9994 30.6ZM17.9994 28.08C19.1124 28.08 20.1624 27.9175 21.1494 27.5924C22.1364 27.2665 23.0394 26.799 23.8584 26.19C23.0394 25.581 22.1364 25.1135 21.1494 24.7876C20.1624 24.4625 19.1124 24.3 17.9994 24.3C16.8864 24.3 15.8364 24.4625 14.8494 24.7876C13.8624 25.1135 12.9594 25.581 12.1404 26.19C12.9594 26.799 13.8624 27.2665 14.8494 27.5924C15.8364 27.9175 16.8864 28.08 17.9994 28.08ZM17.9994 16.74C18.5454 16.74 18.9969 16.5615 19.3539 16.2045C19.7109 15.8475 19.8894 15.396 19.8894 14.85C19.8894 14.304 19.7109 13.8525 19.3539 13.4955C18.9969 13.1385 18.5454 12.96 17.9994 12.96C17.4534 12.96 17.0019 13.1385 16.6449 13.4955C16.2879 13.8525 16.1094 14.304 16.1094 14.85C16.1094 15.396 16.2879 15.8475 16.6449 16.2045C17.0019 16.5615 17.4534 16.74 17.9994 16.74Z" fill="black"/>
<path d="M34.78 18C34.78 27.6746 27.0967 35.5 17.64 35.5C8.18331 35.5 0.5 27.6746 0.5 18C0.5 8.32545 8.18331 0.5 17.64 0.5C27.0967 0.5 34.78 8.32545 34.78 18Z" fill="white" style="mix-blend-mode:darken"/>
<path d="M34.78 18C34.78 27.6746 27.0967 35.5 17.64 35.5C8.18331 35.5 0.5 27.6746 0.5 18C0.5 8.32545 8.18331 0.5 17.64 0.5C27.0967 0.5 34.78 8.32545 34.78 18Z" stroke="#ACABAB"/>
</svg>
