<svg width="36" height="36" viewBox="0 0 36 36" fill="none" xmlns="http://www.w3.org/2000/svg">
<path d="M34.78 18C34.78 27.6746 27.0967 35.5 17.64 35.5C8.18331 35.5 0.5 27.6746 0.5 18C0.5 8.32545 8.18331 0.5 17.64 0.5C27.0967 0.5 34.78 8.32545 34.78 18Z" fill="white" style="mix-blend-mode:darken"/>
<path d="M34.78 18C34.78 27.6746 27.0967 35.5 17.64 35.5C8.18331 35.5 0.5 27.6746 0.5 18C0.5 8.32545 8.18331 0.5 17.64 0.5C27.0967 0.5 34.78 8.32545 34.78 18Z" stroke="#ACABAB"/>
<path d="M20.1206 21.6768H15.1593C14.5014 21.6768 13.8705 21.937 13.4053 22.4001C12.9401 22.8633 12.6787 23.4914 12.6787 24.1463V25.7927H14.3325V24.1463C14.3325 23.928 14.4196 23.7187 14.5746 23.5643C14.7297 23.4099 14.94 23.3232 15.1593 23.3232H20.1206C20.3399 23.3232 20.5502 23.4099 20.7053 23.5643C20.8603 23.7187 20.9475 23.928 20.9475 24.1463V25.7927H22.6012V24.1463C22.6012 23.4914 22.3399 22.8633 21.8747 22.4001C21.4094 21.937 20.7785 21.6768 20.1206 21.6768ZM17.64 20.8537C18.2941 20.8537 18.9336 20.6606 19.4775 20.2987C20.0214 19.9369 20.4454 19.4227 20.6957 18.821C20.946 18.2194 21.0115 17.5573 20.8839 16.9186C20.7563 16.2799 20.4413 15.6932 19.9787 15.2327C19.5162 14.7722 18.9268 14.4586 18.2852 14.3316C17.6436 14.2045 16.9786 14.2697 16.3742 14.5189C15.7699 14.7682 15.2533 15.1902 14.8899 15.7317C14.5264 16.2731 14.3325 16.9097 14.3325 17.561C14.3325 18.4343 14.6809 19.2718 15.3012 19.8893C15.9215 20.5068 16.7628 20.8537 17.64 20.8537ZM17.64 15.9146C17.967 15.9146 18.2868 16.0112 18.5587 16.1921C18.8307 16.373 19.0427 16.6301 19.1678 16.931C19.293 17.2318 19.3257 17.5628 19.2619 17.8822C19.1981 18.2015 19.0406 18.4949 18.8093 18.7251C18.5781 18.9554 18.2834 19.1122 17.9626 19.1757C17.6418 19.2392 17.3093 19.2066 17.0071 19.082C16.7049 18.9574 16.4466 18.7464 16.2649 18.4756C16.0832 18.2049 15.9862 17.8866 15.9862 17.561C15.9862 17.1243 16.1604 16.7056 16.4706 16.3968C16.7807 16.0881 17.2014 15.9146 17.64 15.9146Z" fill="black"/>
<path d="M25.0824 8.5061H22.6018V7.68293C22.6018 7.2463 22.4276 6.82754 22.1174 6.51879C21.8073 6.21004 21.3866 6.03659 20.948 6.03659H14.333C13.8944 6.03659 13.4738 6.21004 13.1637 6.51879C12.8535 6.82754 12.6793 7.2463 12.6793 7.68293V8.5061H10.1987C9.76007 8.5061 9.33943 8.67956 9.02929 8.9883C8.71916 9.29705 8.54492 9.71581 8.54492 10.1524V27.439C8.54492 27.8757 8.71916 28.2944 9.02929 28.6032C9.33943 28.9119 9.76007 29.0854 10.1987 29.0854H25.0824C25.521 29.0854 25.9417 28.9119 26.2518 28.6032C26.5619 28.2944 26.7362 27.8757 26.7362 27.439V10.1524C26.7362 9.71581 26.5619 9.29705 26.2518 8.9883C25.9417 8.67956 25.521 8.5061 25.0824 8.5061ZM14.333 7.68293H20.948V10.9756H14.333V7.68293ZM25.0824 27.439H10.1987V10.1524H12.6793V12.622H22.6018V10.1524H25.0824V27.439Z" fill="black"/>
</svg>
