<svg width="36" height="36" viewBox="0 0 36 36" fill="none" xmlns="http://www.w3.org/2000/svg">
<path d="M34.78 18C34.78 27.6746 27.0967 35.5 17.64 35.5C8.18331 35.5 0.5 27.6746 0.5 18C0.5 8.32545 8.18331 0.5 17.64 0.5C27.0967 0.5 34.78 8.32545 34.78 18Z" fill="white" style="mix-blend-mode:darken"/>
<path d="M34.78 18C34.78 27.6746 27.0967 35.5 17.64 35.5C8.18331 35.5 0.5 27.6746 0.5 18C0.5 8.32545 8.18331 0.5 17.64 0.5C27.0967 0.5 34.78 8.32545 34.78 18Z" stroke="#ACABAB"/>
<path d="M8 16C8 15.45 8.196 14.979 8.588 14.587C8.97933 14.1957 9.45 14 10 14H13V12C13 11.45 13.196 10.9793 13.588 10.588C13.9793 10.196 14.45 10 15 10H21C21.55 10 22.021 10.196 22.413 10.588C22.8043 10.9793 23 11.45 23 12V14H26C26.55 14 27.021 14.1957 27.413 14.587C27.8043 14.979 28 15.45 28 16V20H24V19C24 18.7167 23.904 18.479 23.712 18.287C23.5207 18.0957 23.2833 18 23 18C22.7167 18 22.4793 18.0957 22.288 18.287C22.096 18.479 22 18.7167 22 19V20H14V19C14 18.7167 13.9043 18.479 13.713 18.287C13.521 18.0957 13.2833 18 13 18C12.7167 18 12.479 18.0957 12.287 18.287C12.0957 18.479 12 18.7167 12 19V20H8V16ZM15 14H21V12H15V14ZM10 26C9.45 26 8.97933 25.8043 8.588 25.413C8.196 25.021 8 24.55 8 24V21H12C12 21.2833 12.0957 21.5207 12.287 21.712C12.479 21.904 12.7167 22 13 22C13.2833 22 13.521 21.904 13.713 21.712C13.9043 21.5207 14 21.2833 14 21H22C22 21.2833 22.096 21.5207 22.288 21.712C22.4793 21.904 22.7167 22 23 22C23.2833 22 23.5207 21.904 23.712 21.712C23.904 21.5207 24 21.2833 24 21H28V24C28 24.55 27.8043 25.021 27.413 25.413C27.021 25.8043 26.55 26 26 26H10Z" fill="black"/>
</svg>
