<svg width="30" height="32" viewBox="0 0 30 32" fill="none" xmlns="http://www.w3.org/2000/svg">
<path d="M3.09713 25.3322H26.6473V28.0002H3.09713V25.3322ZM27.3519 12.8522C27.2891 12.598 27.1801 12.3597 27.0313 12.1511C26.8825 11.9424 26.6967 11.7675 26.4848 11.6364C26.2728 11.5053 26.0388 11.4207 25.7963 11.3874C25.5538 11.354 25.3076 11.3727 25.0718 11.4422L18.4927 13.3322L9.91606 4.76221L7.54858 5.44221L12.6795 15.0002L6.51682 16.7732L4.07777 14.7192L2.28009 15.2392L4.53509 19.4532L5.48971 21.2272L7.47236 20.6682L14.0552 18.7622L19.4464 17.2152L26.0264 15.3322C27.0284 15.0122 27.6131 13.9222 27.3519 12.8522Z" fill="#383737"/>
</svg>
