<svg width="32" height="32" viewBox="0 0 32 32" fill="none" xmlns="http://www.w3.org/2000/svg">
<path d="M6.668 12.2V9.33099C6.668 7.86599 7.868 6.66699 9.332 6.66699H22.668C24.133 6.66699 25.332 7.86699 25.332 9.33099V12.214C24.5551 12.4862 23.8816 12.9926 23.4045 13.6635C22.9274 14.3344 22.6701 15.1368 22.668 15.96V18.667H9.332V15.944C9.332 14.226 8.215 12.745 6.668 12.198M26.668 13.331C25.961 13.3334 25.2836 13.6154 24.7837 14.1154C24.2838 14.6155 24.0021 15.293 24 16V20H8V16C8 15.2929 7.71912 14.6148 7.21915 14.1148C6.71917 13.6149 6.04107 13.334 5.334 13.334C4.62693 13.334 3.94882 13.6149 3.44885 14.1148C2.94888 14.6148 2.668 15.2929 2.668 16V22.668C2.668 24.133 3.868 25.332 5.332 25.332V28H8V25.332H24V28H26.668V25.332C28.133 25.332 29.332 24.132 29.332 22.668V16C29.332 14.535 28.132 13.332 26.668 13.332V13.331Z" fill="#434343"/>
</svg>
