<svg width="25" height="25" viewBox="0 0 25 25" fill="none" xmlns="http://www.w3.org/2000/svg">
<g clip-path="url(#clip0_281_11492)">
<path d="M10.0703 18.2617V9.92734H9.08203C8.37358 10.3055 7.68873 10.7264 7.03125 11.1875V12.2734C7.66918 11.8414 8.32496 11.4364 8.99687 11.0594H9.01484V18.2617H10.0703ZM11.9266 16.2227C11.9992 17.2242 12.8539 18.4203 14.5875 18.4203C16.5523 18.4203 17.7125 16.7539 17.7125 13.9344C17.7125 10.9133 16.4914 9.76562 14.6609 9.76562C13.2141 9.76562 11.8531 10.8156 11.8531 12.5914C11.8531 14.4039 13.1406 15.357 14.4711 15.357C15.6375 15.357 16.3937 14.7711 16.632 14.1234H16.675C16.6687 16.1805 15.9547 17.5047 14.6359 17.5047C13.5984 17.5047 13.0617 16.8031 12.9945 16.2234L11.9266 16.2227ZM16.5406 12.6039C16.5406 13.6898 15.668 14.4477 14.6914 14.4477C13.7516 14.4477 12.9023 13.8492 12.9023 12.5727C12.9023 11.2852 13.8125 10.6812 14.7281 10.6812C15.7164 10.6812 16.5406 11.3039 16.5406 12.6031V12.6039Z" fill="#383737"/>
<path d="M5.46875 0C5.89844 0 6.25 0.351562 6.25 0.78125V1.5625H18.75V0.78125C18.75 0.351562 19.1016 0 19.5312 0C19.9609 0 20.3125 0.351562 20.3125 0.78125V1.5625H21.875C23.6016 1.5625 25 2.96094 25 4.6875V21.875C25 23.6016 23.6016 25 21.875 25H3.125C1.39844 25 0 23.6016 0 21.875V4.6875C0 2.96094 1.39844 1.5625 3.125 1.5625H4.6875V0.78125C4.6875 0.351562 5.03906 0 5.46875 0ZM1.5625 6.25V21.875C1.5625 22.7383 2.26172 23.4375 3.125 23.4375H21.875C22.7383 23.4375 23.4375 22.7383 23.4375 21.875V6.25H1.5625Z" fill="#383737"/>
</g>
<defs>
<clipPath id="clip0_281_11492">
<rect width="25" height="25" fill="white"/>
</clipPath>
</defs>
</svg>
