<svg width="27" height="27" viewBox="0 0 27 27" fill="none" xmlns="http://www.w3.org/2000/svg">
<path d="M13.5 13.5002C14.0909 13.5003 14.6759 13.384 15.2218 13.158C15.7677 12.9319 16.2637 12.6005 16.6815 12.1827C17.0992 11.765 17.4306 11.269 17.6567 10.7231C17.8827 10.1772 17.999 9.59215 17.9989 9.00132C17.9989 7.80814 17.5249 6.66383 16.6812 5.82013C15.8375 4.97643 14.6932 4.50244 13.5 4.50244C12.3069 4.50244 11.1625 4.97643 10.3188 5.82013C9.47514 6.66383 9.00115 7.80814 9.00115 9.00132C9.00104 9.59215 9.11733 10.1772 9.34338 10.7231C9.56943 11.269 9.90081 11.765 10.3186 12.1827C10.7364 12.6005 11.2324 12.9319 11.7783 13.158C12.3241 13.384 12.9092 13.5003 13.5 13.5002ZM13.5 15.7513C10.4971 15.7513 4.4989 17.2574 4.4989 20.2502V22.5013H22.5012V20.2502C22.5012 17.2574 16.5021 15.7513 13.5 15.7513Z" fill="#383737"/>
</svg>
