<svg width="13" height="12" viewBox="0 0 13 12" fill="none" xmlns="http://www.w3.org/2000/svg">
<path d="M13 10.8401L12.8517 10.7167C12.4309 10.3632 12.0626 9.95786 11.7567 9.51157C11.4226 8.89565 11.2224 8.22302 11.1678 7.53316V5.50129C11.1707 4.41773 10.7538 3.37048 9.99549 2.55629C9.23718 1.7421 8.18963 1.21701 7.04966 1.07969V0.5491C7.04966 0.40347 6.98831 0.263804 6.87909 0.160828C6.76987 0.0578515 6.62174 0 6.46728 0C6.31282 0 6.16469 0.0578515 6.05548 0.160828C5.94626 0.263804 5.8849 0.40347 5.8849 0.5491V1.08792C4.75515 1.23514 3.72026 1.7634 2.97191 2.57485C2.22356 3.38631 1.81247 4.42597 1.81477 5.50129V7.53316C1.76013 8.22302 1.5599 8.89565 1.22584 9.51157C0.925217 9.95675 0.562837 10.3621 0.148322 10.7167L0 10.8401V12H13V10.8401Z" fill="black"/>
</svg>
